HIERARCHY
ROOT Hips
{
	OFFSET 0.000000 0.000000 0.000000
	CHANNELS 6 Xposition Yposition Zposition Zrotation Yrotation Xrotation 
	JOINT LeftUpLeg_virtual
	{
		OFFSET 0.000000 0.000000 0.000000
		CHANNELS 3 Zrotation Yrotation Xrotation
		JOINT LeftUpLeg
		{
			OFFSET 10.205400 -3.823500 0.155100
			CHANNELS 3 Zrotation Yrotation Xrotation
			JOINT LeftLeg
			{
				OFFSET 0.708757 -12.982077 0.567790
				CHANNELS 3 Zrotation Yrotation Xrotation
				JOINT LeftFoot
				{
					OFFSET -0.708756 -10.717838 -2.184338
					CHANNELS 3 Zrotation Yrotation Xrotation
					JOINT LeftToeBase
					{
						OFFSET 0.108149 -7.191104 7.560241
						CHANNELS 3 Zrotation Yrotation Xrotation
						End Site
						{
							OFFSET 0.000000 0.000000 0.000000
						}
					}
				}
			}
		}
	}
	JOINT RightUpLeg_virtual
	{
		OFFSET 0.000000 0.000000 0.000000
		CHANNELS 3 Zrotation Yrotation Xrotation
		JOINT RightUpLeg
		{
			OFFSET -10.205400 -3.823500 0.005500
			CHANNELS 3 Zrotation Yrotation Xrotation
			JOINT RightLeg
			{
				OFFSET -0.708756 -12.982134 0.610632
				CHANNELS 3 Zrotation Yrotation Xrotation
				JOINT RightFoot
				{
					OFFSET 0.708754 -10.717769 -1.945823
					CHANNELS 3 Zrotation Yrotation Xrotation
					JOINT RightToeBase
					{
						OFFSET -0.108140 -7.191069 7.372968
						CHANNELS 3 Zrotation Yrotation Xrotation
						End Site
						{
							OFFSET 0.000000 0.000000 0.000000
						}
					}
				}
			}
		}
	}
	JOINT Spine_virtual
	{
		OFFSET 0.000000 0.000000 0.000000
		CHANNELS 3 Zrotation Yrotation Xrotation
		JOINT Spine
		{
			OFFSET 0.000000 6.876099 0.125700
			CHANNELS 3 Zrotation Yrotation Xrotation
			JOINT Spine1
			{
				OFFSET 0.000000 8.022060 0.146608
				CHANNELS 3 Zrotation Yrotation Xrotation
				JOINT Spine2
				{
					OFFSET 0.000000 9.168068 0.167552
					CHANNELS 3 Zrotation Yrotation Xrotation
					JOINT Neck_virtual
					{
						OFFSET 0.000000 0.000000 0.000000
						CHANNELS 3 Zrotation Yrotation Xrotation
						JOINT Neck
						{
							OFFSET 0.000000 10.314075 0.188496
							CHANNELS 3 Zrotation Yrotation Xrotation
							JOINT Head
							{
								OFFSET 0.000000 7.643700 -2.377400
								CHANNELS 3 Zrotation Yrotation Xrotation
								End Site
								{
									OFFSET 0.000000 0.000000 0.000000
								}
							}
						}
					}
					JOINT LeftShoulder_virtual
					{
						OFFSET 0.000000 0.000000 0.000000
						CHANNELS 3 Zrotation Yrotation Xrotation
						JOINT LeftShoulder
						{
							OFFSET 4.392200 8.824978 0.174984
							CHANNELS 3 Zrotation Yrotation Xrotation
							JOINT LeftArm
							{
								OFFSET 8.771219 -2.981674 -0.026999
								CHANNELS 3 Zrotation Yrotation Xrotation
								JOINT LeftForeArm
								{
									OFFSET 8.512804 0.000000 -0.000000
									CHANNELS 3 Zrotation Yrotation Xrotation
									JOINT LeftHand
									{
										OFFSET 18.484802 0.000000 -0.000000
										CHANNELS 3 Zrotation Yrotation Xrotation
										End Site
										{
											OFFSET 0.000000 0.000000 0.000000
										}
									}
								}
							}
						}
					}
					JOINT RightShoulder_virtual
					{
						OFFSET 0.000000 0.000000 0.000000
						CHANNELS 3 Zrotation Yrotation Xrotation
						JOINT RightShoulder
						{
							OFFSET -4.392200 8.824993 0.141379
							CHANNELS 3 Zrotation Yrotation Xrotation
							JOINT RightArm
							{
								OFFSET -8.771282 -2.981682 -0.094208
								CHANNELS 3 Zrotation Yrotation Xrotation
								JOINT RightForeArm
								{
									OFFSET -8.494598 0.000000 0.000000
									CHANNELS 3 Zrotation Yrotation Xrotation
									JOINT RightHand
									{
										OFFSET -18.483803 0.000000 0.000001
										CHANNELS 3 Zrotation Yrotation Xrotation
										End Site
										{
											OFFSET 0.000000 0.000000 0.000000
										}
									}
								}
							}
						}
					}
				}
			}
		}
	}
}
MOTION
Frames: 9
Frame Time: 0.033333
28.955992 35.373108 -15.041306 -179.570427 -3.664210 -179.585016 -2.428425 0.925049 11.248126 -17.165099 -11.497648 -9.812390 10.234387 8.411157 19.491611 -2.129877 -8.904375 -0.461176 0.000000 0.000000 0.000000 3.742004 4.005906 8.617770 2.549467 7.590364 -34.385436 -9.249451 0.890800 19.947723 12.440851 10.250447 19.592336 0.000000 0.000000 0.000000 0.612188 3.723860 -1.033477 1.210942 -4.878878 -9.095204 0.518246 -2.485531 6.896033 -0.060146 0.013035 0.062873 0.062032 -0.305963 9.574572 -9.121997 1.357904 15.324889 0.000000 0.000000 0.000000 1.484939 0.288752 6.723021 -14.294294 -10.828065 1.761982 -40.855678 18.529484 30.954759 -5.572920 -38.182800 3.983784 0.000000 0.000000 0.000000 -2.331661 1.502223 5.953057 23.158006 5.531371 0.129092 54.697296 -30.840736 9.252993 -150.679642 81.558128 -153.404437 0.000000 0.000000 0.000000 
28.719727 35.088875 -17.072556 -179.509502 -5.443741 -179.299487 -2.324012 1.215491 11.577511 -16.858833 -11.017196 -7.434282 9.376930 7.948703 21.190071 -2.075395 -10.024778 -1.266718 0.000000 0.000000 0.000000 3.689468 3.613456 7.977538 4.538181 8.485311 -35.731383 -9.871869 -0.702147 12.385959 12.770730 9.322869 22.008531 0.000000 0.000000 0.000000 0.722973 3.487789 -1.391623 1.582364 -4.636616 -9.616661 0.356538 -2.433775 6.660497 -0.089660 -0.158285 0.063632 -0.114359 -0.107382 9.476305 -9.353183 1.466530 16.124451 0.000000 0.000000 0.000000 1.369148 0.460207 6.596903 -14.714900 -11.031600 2.174490 -41.356580 15.969872 27.080802 -6.173168 -38.355569 3.927394 0.000000 0.000000 0.000000 -2.560929 1.654163 5.796863 24.013552 5.701407 0.005923 54.658353 -27.899055 9.022215 -153.763459 80.836785 -157.013427 0.000000 0.000000 0.000000 
28.482870 34.798874 -19.209787 -179.534323 -7.282097 -179.278696 -2.132364 0.954414 11.740415 -16.079543 -11.494416 -5.473081 8.405203 7.118814 22.937790 -3.429881 -11.625979 -0.234324 0.000000 0.000000 0.000000 3.400261 3.603978 7.725684 6.355980 9.030638 -36.123224 -10.176796 -1.555662 8.597972 12.744403 8.620993 22.960808 0.000000 0.000000 0.000000 0.801175 3.259606 -1.516561 1.867686 -4.417351 -10.282109 0.139083 -2.354488 6.553598 -0.048716 -0.006100 0.058680 -0.280877 -0.182358 9.398159 -9.507362 1.580980 16.971630 0.000000 0.000000 0.000000 1.129845 0.497866 6.428274 -15.153514 -11.256985 2.672221 -42.072978 14.205565 23.990326 -6.652361 -38.744473 3.921497 0.000000 0.000000 0.000000 -2.781782 1.727613 5.637464 24.743108 5.880037 -0.017545 54.610156 -24.819193 8.945977 -155.579360 80.301072 -159.117234 0.000000 0.000000 0.000000 
28.244675 34.536427 -21.494349 -179.660777 -9.384809 -179.283682 -2.132839 0.657408 11.746230 -15.023956 -12.600692 -3.839266 7.160523 5.603447 24.987035 -5.202071 -12.763085 2.567384 0.000000 0.000000 0.000000 3.271405 3.265894 7.503579 7.664071 9.433670 -35.819517 -10.517468 0.650691 6.625882 11.965062 8.567962 25.679264 0.000000 0.000000 0.000000 0.728061 2.985427 -1.531860 2.083878 -4.217354 -11.083152 0.024396 -2.396014 6.372281 -0.050433 -0.024228 0.129477 -0.488940 -0.122722 9.188252 -9.735311 1.616448 17.680402 0.000000 0.000000 0.000000 1.002693 0.663322 6.176574 -15.424401 -11.263967 3.111875 -43.084106 13.296906 22.125751 -7.057228 -39.085396 4.019788 0.000000 0.000000 0.000000 -2.900136 1.899938 5.377755 25.383590 6.074100 0.025069 54.732536 -22.045568 9.015266 -157.146042 79.687728 -160.910337 0.000000 0.000000 0.000000 
27.993704 34.349331 -23.808504 -179.839154 -11.861592 -179.632363 -2.166156 0.198022 11.534572 -13.803601 -12.665084 -2.975252 5.057353 1.066058 27.748268 -7.454075 -13.502742 7.346024 0.000000 0.000000 0.000000 2.979674 2.905081 7.248041 8.428480 9.407862 -34.470216 -11.259569 3.230779 8.591169 11.673674 8.899509 26.056627 0.000000 0.000000 0.000000 0.595127 2.606600 -1.332565 2.172680 -4.034606 -11.741689 -0.043253 -2.340822 6.296852 -0.087598 -0.011458 0.068665 -0.508864 0.000617 9.027662 -9.814340 1.430021 18.325536 0.000000 0.000000 0.000000 0.987830 0.632063 5.942317 -15.437162 -11.315297 3.634420 -44.376746 13.297941 21.536792 -7.263141 -39.381631 4.125779 0.000000 0.000000 0.000000 -2.935880 1.873823 5.246852 25.934112 6.113769 -0.026848 55.189814 -19.935229 9.249063 -158.987379 78.864294 -162.907539 0.000000 0.000000 0.000000 
27.741934 34.277988 -26.068201 -179.748613 -14.688141 179.637363 -1.933224 -0.320320 11.280491 -11.791305 -12.351290 -3.211041 4.243180 -0.033256 31.805073 -9.776834 -13.398197 12.614927 0.000000 0.000000 0.000000 2.128948 2.159915 7.154421 9.192345 8.848328 -32.169501 -11.106591 4.079259 12.490090 10.458568 8.688256 24.104337 0.000000 0.000000 0.000000 0.546436 2.341400 -0.946505 2.244504 -3.801823 -12.112493 -0.091922 -2.474721 6.345172 -0.041380 -0.119315 -0.085399 -0.584687 -0.114411 8.834568 -9.993259 1.370684 18.764770 0.000000 0.000000 0.000000 1.020751 0.650436 5.832459 -15.181723 -11.578704 3.970328 -45.586335 13.788123 22.281923 -7.407857 -39.107723 4.313399 0.000000 0.000000 0.000000 -3.009014 1.701523 5.079730 26.319482 6.105569 0.011870 55.825899 -18.378490 9.609905 -160.017440 77.847935 -164.051718 0.000000 0.000000 0.000000 
27.461996 34.342133 -28.134567 -179.430340 -17.232291 179.111971 -1.529740 -0.871895 11.197039 -9.321005 -11.303300 -4.810355 4.041504 -0.132387 36.921417 -10.933704 -12.301759 16.966342 0.000000 0.000000 0.000000 1.511063 0.918354 7.132119 9.205845 8.256530 -29.744835 -10.302287 4.698441 15.640819 9.254438 8.687948 21.137064 0.000000 0.000000 0.000000 0.603293 1.816153 -0.741436 2.350351 -3.449252 -12.404330 0.022030 -2.389388 6.366123 -0.111527 -0.084174 -0.064777 -0.481142 -0.059080 8.636476 -10.079659 1.139943 19.197100 0.000000 0.000000 0.000000 1.113273 0.545621 5.716876 -14.724976 -11.868300 4.240266 -46.619979 14.738268 23.984851 -7.278952 -38.424585 4.355816 0.000000 0.000000 0.000000 -2.859701 1.586296 4.900209 26.541871 6.268053 0.185253 56.407380 -17.305736 9.989271 -160.773296 76.895328 -164.911748 0.000000 0.000000 0.000000 
27.093990 34.555187 -29.967657 -179.180915 -19.831528 178.868434 -1.173127 -1.970004 11.182179 -6.948723 -9.886362 -8.000818 4.402674 0.208593 42.599166 -10.378327 -10.549910 19.398808 0.000000 0.000000 0.000000 1.262299 -0.976109 7.145641 8.477219 7.641703 -27.268238 -9.160129 5.320799 17.131733 8.431258 8.776575 17.984991 0.000000 0.000000 0.000000 0.566546 1.508624 -0.572987 2.311710 -2.847976 -12.583958 0.115863 -2.420156 6.314381 -0.080636 -0.184511 -0.096639 -0.358255 -0.037706 8.489689 -10.033287 0.924144 19.453547 0.000000 0.000000 0.000000 1.238038 0.553667 5.836261 -14.108985 -12.274935 4.249514 -47.453767 15.919086 25.779152 -7.106826 -37.479423 4.512276 0.000000 0.000000 0.000000 -2.776613 1.436014 5.006815 26.566941 6.189937 0.216132 56.808015 -16.618060 10.314345 -161.752267 75.930858 -165.945115 0.000000 0.000000 0.000000 
26.612404 34.853245 -31.537889 -179.289010 -21.895305 179.133350 -0.825841 -2.948907 10.854923 -5.330085 -8.529657 -13.460530 4.709078 0.665245 48.421212 -8.493385 -8.534981 19.695021 0.000000 0.000000 0.000000 1.579712 -2.252555 7.608945 7.654997 7.187188 -24.426129 -7.762819 5.168291 17.867579 8.364925 8.977946 15.707070 0.000000 0.000000 0.000000 0.528357 0.449182 -0.564130 2.227866 -2.204054 -12.738736 0.128724 -2.135751 6.311720 -0.156497 0.007783 -0.101324 -0.288819 0.046813 8.542209 -9.911790 0.752124 19.631261 0.000000 0.000000 0.000000 1.178742 0.645318 5.737096 -13.465317 -12.007858 4.299484 -47.999387 17.363140 27.356909 -6.585229 -36.113505 4.434555 0.000000 0.000000 0.000000 -2.813519 1.846387 5.032830 26.590205 6.740778 0.452391 57.197384 -15.916868 10.622168 -161.443132 75.533942 -165.697958 0.000000 0.000000 0.000000 
